<?xml version="1.0"?>
<svg version="1.1" id="Layer_1" xmlns="http://www.w3.org/2000/svg" x="0" y="0" viewBox="0 0 100 100" xml:space="preserve"><path d="M91.772 63.44h.021V7.5h-6.3l-2.727.654-41.57 9.961-9.027 2.163v43.484c-3.811-1.303-8.343-1.262-12.706.438-8.761 3.412-13.514 12.211-10.616 19.653 2.899 7.441 12.351 10.707 21.113 7.294 7.932-3.09 12.557-10.592 11.215-17.507h.021V35.824l41.57-9.961v27.698c-3.811-1.303-8.343-1.262-12.706.438-8.762 3.413-13.515 12.212-10.616 19.653 2.899 7.441 12.351 10.707 21.113 7.294 7.933-3.089 12.558-10.591 11.215-17.506zm-9.006-42.202l-41.57 9.961v-4.186l41.57-9.961v4.186z" fill="#323232"/><metadata xmlns:d="https://loading.io/stock/"><d:name>music note</d:name><d:tags>music note,sixteenth notes,score,midi,16th notes</d:tags><d:license>by</d:license><d:slug>ruxu09</d:slug></metadata></svg>